HIERARCHY
ROOT hip
{
	OFFSET 0.000000 0.000000 0.000000 
	CHANNELS 6 Xposition Yposition Zposition Xrotation Zrotation Yrotation
	JOINT abdomen
	{
		OFFSET 0.000000 3.402643 0.000000 
		CHANNELS 3 Xrotation Zrotation Yrotation
		JOINT chest
		{
			OFFSET 0.000000 8.438565 -0.680529 
			CHANNELS 3 Xrotation Zrotation Yrotation
			JOINT neck
			{
				OFFSET 0.000000 10.207942 -0.272212 
				CHANNELS 3 Xrotation Zrotation Yrotation
				JOINT head
				{
					OFFSET 0.000000 3.130431 0.000000 
					CHANNELS 3 Xrotation Zrotation Yrotation
					End Site
					{
						OFFSET 0.000000 3.130435 0.000000 
					}
				}
			}
			JOINT lCollar
			{
				OFFSET 3.470700 6.669187 -0.816635 
				CHANNELS 3 Yrotation Zrotation Xrotation
				JOINT lShldr
				{
					OFFSET 3.198488 0.000000 0.000000 
					CHANNELS 3 Zrotation Yrotation Xrotation
					JOINT lForeArm
					{
						OFFSET 10.139888 0.000000 0.000000 
						CHANNELS 3 Yrotation Zrotation Xrotation
						JOINT lHand
						{
							OFFSET 8.370511 0.000000 0.000000 
							CHANNELS 3 Zrotation Yrotation Xrotation
							End Site
							{
								OFFSET 4.083176 0.000000 0.000000 
							}
						}
					}
				}
			}
			JOINT rCollar
			{
				OFFSET -3.470700 6.669187 -0.816635 
				CHANNELS 3 Yrotation Zrotation Xrotation
				JOINT rShldr
				{
					OFFSET -3.198488 0.000000 0.000000 
					CHANNELS 3 Zrotation Yrotation Xrotation
					JOINT rForeArm
					{
						OFFSET -10.139888 0.000000 0.000000 
						CHANNELS 3 Yrotation Zrotation Xrotation
						JOINT rHand
						{
							OFFSET -8.370511 0.000000 0.000000 
							CHANNELS 3 Zrotation Yrotation Xrotation
							End Site
							{
								OFFSET -4.083176 0.000000 0.000000 
							}
						}
					}
				}
			}
		}
	}
	JOINT lThigh
	{
		OFFSET 5.308129 -1.633274 1.361059 
		CHANNELS 3 Xrotation Zrotation Yrotation
		JOINT lShin
		{
			OFFSET -2.041588 -20.007561 0.000000 
			CHANNELS 3 Xrotation Zrotation Yrotation
			JOINT lFoot
			{
				OFFSET 0.000000 -19.190928 -1.224953 
				CHANNELS 3 Xrotation Yrotation Zrotation
				End Site
				{
					OFFSET 0.000000 -2.449906 4.627600 
				}
			}
		}
	}
	JOINT rThigh
	{
		OFFSET -5.308129 -1.633274 1.361059 
		CHANNELS 3 Xrotation Zrotation Yrotation
		JOINT rShin
		{
			OFFSET 2.041588 -20.007561 0.000000 
			CHANNELS 3 Xrotation Zrotation Yrotation
			JOINT rFoot
			{
				OFFSET 0.000000 -19.190928 -1.224953 
				CHANNELS 3 Xrotation Yrotation Zrotation
				End Site
				{
					OFFSET 0.000000 -2.449906 4.627600 
				}
			}
		}
	}
}
MOTION
Frames: 8
Frame Time: 0.016667
12.641870 44.853687 -31.815937 16.650200 2.722830 -1.393070 -14.793700 4.075280 -1.446350 20.232901 5.468660 -0.167432 33.050999 3.069520 -4.568550 19.057600 5.837090 -1.935300 2.000000 -2.000000 0.000000 -90.557098 -27.797501 -116.403999 73.281799 -0.254178 0.130987 0.181354 -0.158675 141.584000 -2.000000 2.000000 0.000000 62.673801 30.734200 127.042000 -31.797199 0.331046 0.072041 -0.059588 0.040469 -151.531006 -21.769949 -4.320295 -0.294118 19.975763 1.714636 2.048537 -10.959956 2.372270 1.397590 -36.373562 -6.008798 0.698995 23.169779 -2.266710 -2.025820 -16.263170 -8.499723 -3.893035 
12.819589 44.890949 -32.073757 16.257601 2.615810 -1.854580 -14.700800 4.328340 -0.852949 20.321199 5.449170 0.153524 32.858601 3.386250 -5.113530 18.907700 5.747010 -2.199780 2.000000 -2.000000 0.000000 -89.232597 -26.666700 -118.231003 72.529800 -0.255893 0.130460 0.178977 -0.168067 142.442993 -2.000000 2.000000 0.000000 65.063103 31.198799 129.802002 -31.914400 0.330899 0.072278 -0.060169 0.042635 -152.332001 -21.714014 -4.349006 -0.122828 20.140944 1.735709 2.057697 -10.736014 2.820582 1.481745 -36.104080 -6.138554 -0.380626 24.160461 -2.292609 -2.080125 -17.312759 -9.791289 -4.446591 
12.997308 44.928089 -32.331570 15.875000 2.508110 -2.314170 -14.605600 4.578020 -0.267881 20.419300 5.419910 0.475368 32.658199 3.705900 -5.661720 18.767700 5.656490 -2.473560 2.000000 -2.000000 0.000000 -87.956703 -25.506599 -120.018997 71.777901 -0.257601 0.129910 0.176578 -0.167652 143.313004 -2.000000 2.000000 0.000000 67.481499 31.565500 132.591003 -32.031601 0.330751 0.072516 -0.060780 0.044792 -153.132996 -21.686720 -4.387088 0.043154 20.375431 1.747563 2.063746 -10.573302 3.260004 1.583274 -35.805882 -6.274590 -1.430928 25.104452 -2.298374 -2.150630 -18.337130 -11.086689 -5.009385 
13.158739 44.937851 -32.596462 15.640900 2.548620 -2.626410 -14.562900 5.021100 0.112065 20.419201 5.712870 0.718813 32.522400 3.803040 -5.993480 18.739599 5.704540 -2.669180 2.000000 -2.000000 0.000000 -87.024696 -24.445601 -122.761002 70.400902 -0.260709 0.128846 0.174750 -0.167312 143.977005 -2.000000 2.000000 0.000000 69.629097 32.154400 136.707993 -31.738600 0.331120 0.071922 -0.061341 0.046680 -153.835999 -21.892380 -4.614055 0.066556 20.698273 1.761639 2.077880 -10.309703 3.933732 1.674641 -35.686588 -6.569713 -2.231327 26.874329 -2.297726 -2.272203 -18.309580 -10.982373 -4.911848 
13.320168 44.947746 -32.861244 15.406700 2.589170 -2.929200 -14.519500 5.464280 0.493320 20.409300 6.005840 0.951470 32.387199 3.908870 -6.320570 18.721001 5.742870 -2.865360 2.000000 -2.000000 0.000000 -86.160698 -23.355499 -125.467003 69.024002 -0.263791 0.127707 0.172900 -0.166944 144.651001 -2.000000 2.000000 0.000000 71.844498 32.615700 140.858994 -31.435900 0.331498 0.071306 -0.071699 0.058352 -154.548996 -22.030602 -4.827989 0.061832 20.896187 1.750541 2.100478 -10.018200 4.571010 1.797667 -35.611923 -6.869979 -3.051564 28.751062 -2.291358 -2.380648 -18.343939 -10.848828 -4.817278 
13.427564 44.922306 -33.120075 15.203800 2.770760 -3.124230 -14.403300 5.826480 0.992448 20.468201 6.142570 1.240600 32.176102 4.081170 -6.744980 18.662399 5.753980 -3.103150 2.000000 -2.000000 0.000000 -85.335800 -22.832001 -128.149002 67.393097 -0.267404 0.126263 0.171588 -0.166670 145.128998 -2.000000 2.000000 0.000000 74.294899 33.153400 145.651001 -30.947599 0.332102 0.070310 -0.072350 0.050588 -155.300995 -22.265774 -5.155572 0.201058 21.162170 1.745092 2.122673 -9.749331 5.059739 1.869139 -35.514992 -7.298973 -3.540426 30.992321 -2.258615 -2.512844 -17.386583 -9.421906 -4.156931 
13.534734 44.896736 -33.379013 15.000900 2.952660 -3.310290 -14.285600 6.185370 1.483120 20.537001 6.289060 1.531060 31.955900 4.255400 -7.171580 18.594000 5.765360 -3.341930 2.000000 -2.000000 0.000000 -84.540001 -22.269600 -130.815994 65.762299 -0.270975 0.124717 0.170279 -0.166385 145.608002 -2.000000 2.000000 0.000000 76.812500 33.514702 150.490997 -30.459299 0.332696 0.069308 -0.073027 0.052582 -156.052994 -22.471781 -5.471940 0.316314 21.428556 1.738895 2.154150 -9.498034 5.543828 1.936301 -35.413647 -7.727295 -4.019911 33.253548 -2.210133 -2.658220 -16.451597 -7.959315 -3.499254 
13.595846 44.879257 -33.639076 14.807800 3.134730 -3.243690 -14.191800 6.483270 2.086990 20.487900 6.279290 1.847990 31.739401 4.629560 -7.789550 18.514500 5.729740 -3.653450 2.000000 -2.000000 0.000000 -83.244797 -21.677200 -132.903000 65.166496 -0.272268 0.124126 0.172819 -0.166928 144.679993 -2.000000 2.000000 0.000000 79.338898 33.807098 155.369995 -29.961300 0.333294 0.068281 -0.073326 0.053434 -156.375000 -22.610117 -5.773781 0.209794 21.468613 1.732221 2.161790 -9.141281 5.701487 1.937476 -35.124748 -8.106938 -4.533280 35.472275 -2.180586 -2.777851 -15.815423 -6.697301 -3.004886 
